<mxfile host="app.diagrams.net" modified="2023-06-28T15:50:26.818Z" agent="Mozilla/5.0 (Windows NT 10.0; Win64; x64) AppleWebKit/537.36 (KHTML, like Gecko) Chrome/114.0.0.0 Safari/537.36" etag="0gkbSt_lMc1tr6HGd0Mj" version="21.5.1" type="github">
  <diagram name="Page-1" id="0DDMd3gsn2C4s6-PBbxJ">
    <mxGraphModel dx="607" dy="312" grid="1" gridSize="10" guides="1" tooltips="1" connect="1" arrows="1" fold="1" page="1" pageScale="1" pageWidth="850" pageHeight="1100" math="0" shadow="0">
      <root>
        <mxCell id="0" />
        <mxCell id="1" parent="0" />
        <mxCell id="yVkJ5vQHjLdoR86XCxUz-2" value="Fetch Data of x mins time frame from broker API for 1 year" style="rounded=0;whiteSpace=wrap;html=1;" vertex="1" parent="1">
          <mxGeometry x="120" y="440" width="180" height="80" as="geometry" />
        </mxCell>
        <mxCell id="yVkJ5vQHjLdoR86XCxUz-3" value="Open csv file and write the data in to it with delimeter &lt;b&gt;&quot;,&quot;&lt;/b&gt;" style="rounded=0;whiteSpace=wrap;html=1;" vertex="1" parent="1">
          <mxGeometry x="340" y="440" width="130" height="80" as="geometry" />
        </mxCell>
        <mxCell id="yVkJ5vQHjLdoR86XCxUz-4" value="" style="endArrow=classic;html=1;rounded=0;exitX=1;exitY=0.5;exitDx=0;exitDy=0;entryX=0;entryY=0.5;entryDx=0;entryDy=0;" edge="1" parent="1" source="yVkJ5vQHjLdoR86XCxUz-2" target="yVkJ5vQHjLdoR86XCxUz-3">
          <mxGeometry width="50" height="50" relative="1" as="geometry">
            <mxPoint x="350" y="560" as="sourcePoint" />
            <mxPoint x="400" y="510" as="targetPoint" />
          </mxGeometry>
        </mxCell>
        <mxCell id="yVkJ5vQHjLdoR86XCxUz-5" value="Push Data to the tables on the SQL Data base hosted on the VPS" style="rounded=0;whiteSpace=wrap;html=1;" vertex="1" parent="1">
          <mxGeometry x="120" y="560" width="180" height="60" as="geometry" />
        </mxCell>
        <mxCell id="yVkJ5vQHjLdoR86XCxUz-6" value="" style="endArrow=classic;html=1;rounded=0;entryX=0.5;entryY=0;entryDx=0;entryDy=0;" edge="1" parent="1" source="yVkJ5vQHjLdoR86XCxUz-2" target="yVkJ5vQHjLdoR86XCxUz-5">
          <mxGeometry width="50" height="50" relative="1" as="geometry">
            <mxPoint x="350" y="560" as="sourcePoint" />
            <mxPoint x="400" y="510" as="targetPoint" />
          </mxGeometry>
        </mxCell>
      </root>
    </mxGraphModel>
  </diagram>
</mxfile>
